<svg viewBox="0 0 800 800" xmlns="http://www.w3.org/2000/svg"><path d="M191.71568469621607,538.6753824129755 L191.59974490046844,459.3888259950862 M176.29318528059014,546.0536236456574 L176.16864779319468,466.7629732533835 M191.71568469621607,538.6753824129755 L176.29318528059014,546.0536236456574 M191.59974490046844,459.3888259950862 L176.16864779319468,466.7629732533835 M172.90625977196677,548.1267171596255 L172.7798331106123,468.83491661997266 M176.29318528059014,546.0536236456574 L172.90625977196677,548.1267171596255 M176.16864779319468,466.7629732533835 L172.7798331106123,468.83491661997266 M163.95091675001353,555.9316045301532 L163.8194901306999,476.63547445843216 M172.90625977196677,548.1267171596255 L163.95091675001353,555.9316045301532 M172.7798331106123,468.83491661997266 L163.8194901306999,476.63547445843216 M151.9497390340334,573.4698000633296 L151.81159648923276,494.16394465744645 M163.95091675001353,555.9316045301532 L151.9497390340334,573.4698000633296 M163.8194901306999,476.63547445843216 L151.81159648923276,494.16394465744645 M167.11575507547244,582.2600846501082 L166.98604271451245,502.94935663265977 M151.9497390340334,573.4698000633296 L167.11575507547244,582.2600846501082 M151.81159648923276,494.16394465744645 L166.98604271451245,502.94935663265977 M197.46638678462455,575.3506441237162 L197.35359010370715,496.0437460311119 M167.11575507547244,582.2600846501082 L197.46638678462455,575.3506441237162 M166.98604271451245,502.94935663265977 L197.35359010370715,496.0437460311119 M210.98153652153078,570.1837174588231 L210.87627443031994,490.87968389649825 M197.46638678462455,575.3506441237162 L210.98153652153078,570.1837174588231 M197.35359010370715,496.0437460311119 L210.87627443031994,490.87968389649825 M214.5730432106856,568.2278841833484 L214.4697840162258,488.924935038339 M210.98153652153078,570.1837174588231 L214.5730432106856,568.2278841833484 M210.87627443031994,490.87968389649825 L214.4697840162258,488.924935038339 M227.3601996810594,559.3183574200361 L227.26407330740955,480.0203489420726 M214.5730432106856,568.2278841833484 L227.3601996810594,559.3183574200361 M214.4697840162258,488.924935038339 L227.26407330740955,480.0203489420726 M255.17745099517012,571.0184243148863 L255.09680012965512,491.7139279651314 M227.3601996810594,559.3183574200361 L236.3421576499988,563.44456550774 M236.3421576499988,563.44456550774 L245.62015728429037,567.3469522717539 M245.62015728429037,567.3469522717539 L255.17745099517012,571.0184243148863 M227.26407330740955,480.0203489420726 L236.25102718837655,484.14426873864267 M236.25102718837655,484.14426873864267 L245.53418843877733,488.0444915814258 M245.53418843877733,488.0444915814258 L255.09680012965512,491.7139279651314 M244.4487809255854,580.7962813695933 L244.3621434544064,501.48636468081685 M255.17745099517012,571.0184243148863 L244.4487809255854,580.7962813695933 M255.09680012965512,491.7139279651314 L244.3621434544064,501.48636468081685 M242.3350758571658,583.3744480452322 L242.24725794200265,504.06310240231306 M244.4487809255854,580.7962813695933 L242.3350758571658,583.3744480452322 M244.3621434544064,501.48636468081685 L242.24725794200265,504.06310240231306 M237.99056774976862,592.402134155282 L237.90031856966863,513.0857857156498 M242.3350758571658,583.3744480452322 L237.99056774976862,592.402134155282 M242.24725794200265,504.06310240231306 L237.90031856966863,513.0857857156498 M235.9598063819815,611.2358064302084 L235.8684018332612,531.9090251835964 M237.99056774976862,592.402134155282 L235.9598063819815,611.2358064302084 M237.90031856966863,513.0857857156498 L235.8684018332612,531.9090251835964 M255.10489113296407,616.8852443785959 L255.02414799523683,537.5553347357716 M235.9598063819815,611.2358064302084 L255.10489113296407,616.8852443785959 M235.8684018332612,531.9090251835964 L255.02414799523683,537.5553347357716 M280.292622742655,604.8814566806413 L280.2259267409889,525.5581947722351 M255.10489113296407,616.8852443785959 L280.292622742655,604.8814566806413 M255.02414799523683,537.5553347357716 L280.2259267409889,525.5581947722351 M290.3882717967212,597.5483429841177 L290.3272069461044,518.2291432819197 M280.292622742655,604.8814566806413 L290.3882717967212,597.5483429841177 M280.2259267409889,525.5581947722351 L290.3272069461044,518.2291432819197 M292.7589059791095,595.045311577903 L292.6991639069824,515.7274986313887 M290.3882717967212,597.5483429841177 L292.7589059791095,595.045311577903 M290.3272069461044,518.2291432819197 L292.6991639069824,515.7274986313887 M300.15690702194263,584.2826760492819 L300.1012946281896,504.97082704382075 M292.7589059791095,595.045311577903 L300.15690702194263,584.2826760492819 M292.6991639069824,515.7274986313887 L300.1012946281896,504.97082704382075 M332.8915914452316,590.4375914160414 L332.85420897877725,511.1223315423329 M300.15690702194263,584.2826760492819 L310.9137576488335,586.6015268555755 M310.9137576488335,586.6015268555755 L321.8318992838875,588.6544142698594 M321.8318992838875,588.6544142698594 L332.8915914452316,590.4375914160414 M300.1012946281896,504.97082704382075 L310.86413518623885,507.2883927436746 M310.86413518623885,507.2883927436746 L321.78835714860094,509.3401425183132 M321.78835714860094,509.3401425183132 L332.85420897877725,511.1223315423329 M327.91866023759945,601.6573230108706 L327.87850130870504,522.3358470202961 M332.8915914452316,590.4375914160414 L327.91866023759945,601.6573230108706 M332.85420897877725,511.1223315423329 L327.87850130870504,522.3358470202961 M327.2878848382651,604.4878229024384 L327.2473728771247,525.1647790276663 M327.91866023759945,601.6573230108706 L327.2878848382651,604.4878229024384 M327.87850130870504,522.3358470202961 L327.2473728771247,525.1647790276663 M327.9877947981637,613.8523652522647 L327.9476675330906,534.5241350151047 M327.2878848382651,604.4878229024384 L327.9877947981637,613.8523652522647 M327.2473728771247,525.1647790276663 L327.9476675330906,534.5241350151047 M336.1397805505356,632.1305251858437 L336.1041866964803,552.7921758980942 M327.9877947981637,613.8523652522647 L336.1397805505356,632.1305251858437 M327.9476675330906,534.5241350151047 L336.1041866964803,552.7921758980942 M357.3800178924984,634.0782291722799 L357.3562620895023,554.7388019148523 M336.1397805505356,632.1305251858437 L357.3800178924984,634.0782291722799 M336.1041866964803,552.7921758980942 L357.3562620895023,554.7388019148523 M374.9157623985032,618.1545315360022 L374.9017839000608,538.8239190893893 M357.3800178924984,634.0782291722799 L374.9157623985032,618.1545315360022 M357.3562620895023,554.7388019148523 L374.9017839000608,538.8239190893893 M380.5938160904898,609.3740674926175 L380.5830030867235,530.048317299524 M374.9157623985032,618.1545315360022 L380.5938160904898,609.3740674926175 M374.9017839000608,538.8239190893893 L380.5830030867235,530.048317299524 M381.50893793251873,606.5694328490408 L381.4986352336119,527.2452359985209 M380.5938160904898,609.3740674926175 L381.50893793251873,606.5694328490408 M380.5830030867235,530.048317299524 L381.4986352336119,527.2452359985209 M382.78472186508213,595.0100717937441 L382.7751315500103,515.6922783718414 M381.50893793251873,606.5694328490408 L382.78472186508213,595.0100717937441 M381.4986352336119,527.2452359985209 L382.7751315500103,515.6922783718414 M417.215278134918,595.0100717937441 L417.22486844998974,515.6922783718414 M382.78472186508213,595.0100717937441 L394.25811240908956,595.2918772652436 M394.25811240908956,595.2918772652436 L405.74188759091055,595.2918772652436 M405.74188759091055,595.2918772652436 L417.215278134918,595.0100717937441 M382.7751315500103,515.6922783718414 L394.2549136964078,515.973927709487 M394.2549136964078,515.973927709487 L405.7450863035923,515.973927709487 M405.7450863035923,515.973927709487 L417.22486844998974,515.6922783718414 M418.4910620674813,606.5694328490408 L418.50136476638824,527.2452359985209 M417.215278134918,595.0100717937441 L418.4910620674813,606.5694328490408 M417.22486844998974,515.6922783718414 L418.50136476638824,527.2452359985209 M419.40618390951033,609.3740674926175 L419.41699691327653,530.048317299524 M418.4910620674813,606.5694328490408 L419.40618390951033,609.3740674926175 M418.50136476638824,527.2452359985209 L419.41699691327653,530.048317299524 M425.0842376014969,618.1545315360022 L425.0982160999393,538.8239190893893 M419.40618390951033,609.3740674926175 L425.0842376014969,618.1545315360022 M419.41699691327653,530.048317299524 L425.0982160999393,538.8239190893893 M442.61998210750164,634.0782291722799 L442.64373791049775,554.7388019148523 M425.0842376014969,618.1545315360022 L442.61998210750164,634.0782291722799 M425.0982160999393,538.8239190893893 L442.64373791049775,554.7388019148523 M463.86021944946447,632.1305251858435 L463.89581330351984,552.792175898094 M442.61998210750164,634.0782291722799 L463.86021944946447,632.1305251858435 M442.64373791049775,554.7388019148523 L463.89581330351984,552.792175898094 M472.01220520183637,613.8523652522647 L472.0523324669095,534.5241350151047 M463.86021944946447,632.1305251858435 L472.01220520183637,613.8523652522647 M463.89581330351984,552.792175898094 L472.0523324669095,534.5241350151047 M472.7121151617351,604.4878229024384 L472.7526271228754,525.1647790276663 M472.01220520183637,613.8523652522647 L472.7121151617351,604.4878229024384 M472.0523324669095,534.5241350151047 L472.7526271228754,525.1647790276663 M472.0813397624006,601.6573230108709 L472.121498691295,522.3358470202961 M472.7121151617351,604.4878229024384 L472.0813397624006,601.6573230108709 M472.7526271228754,525.1647790276663 L472.121498691295,522.3358470202961 M467.10840855476846,590.4375914160414 L467.1457910212228,511.1223315423329 M472.0813397624006,601.6573230108709 L467.10840855476846,590.4375914160414 M472.121498691295,522.3358470202961 L467.1457910212228,511.1223315423329 M499.8430929780575,584.2826760492819 L499.8987053718105,504.97082704382086 M467.10840855476846,590.4375914160414 L478.1681007161126,588.6544142698594 M478.1681007161126,588.6544142698594 L489.0862423511666,586.6015268555755 M489.0862423511666,586.6015268555755 L499.8430929780575,584.2826760492819 M467.1457910212228,511.1223315423329 L478.2116428513992,509.3401425183132 M478.2116428513992,509.3401425183132 L489.1358648137612,507.2883927436746 M489.1358648137612,507.2883927436746 L499.8987053718105,504.97082704382086 M507.24109402089056,595.045311577903 L507.3008360930177,515.7274986313887 M499.8430929780575,584.2826760492819 L507.24109402089056,595.045311577903 M499.8987053718105,504.97082704382086 L507.3008360930177,515.7274986313887 M509.61172820327886,597.5483429841177 L509.67279305389565,518.2291432819197 M507.24109402089056,595.045311577903 L509.61172820327886,597.5483429841177 M507.3008360930177,515.7274986313887 L509.67279305389565,518.2291432819197 M519.7073772573451,604.8814566806416 L519.7740732590112,525.5581947722351 M509.61172820327886,597.5483429841177 L519.7073772573451,604.8814566806416 M509.67279305389565,518.2291432819197 L519.7740732590112,525.5581947722351 M544.895108867036,616.8852443785961 L544.9758520047633,537.5553347357716 M519.7073772573451,604.8814566806416 L544.895108867036,616.8852443785961 M519.7740732590112,525.5581947722351 L544.9758520047633,537.5553347357716 M564.0401936180185,611.2358064302086 L564.131598166739,531.9090251835964 M544.895108867036,616.8852443785961 L564.0401936180185,611.2358064302086 M544.9758520047633,537.5553347357716 L564.131598166739,531.9090251835964 M562.0094322502314,592.402134155282 L562.0996814303314,513.0857857156498 M564.0401936180185,611.2358064302086 L562.0094322502314,592.402134155282 M564.131598166739,531.9090251835964 L562.0996814303314,513.0857857156498 M557.6649241428343,583.3744480452322 L557.7527420579975,504.06310240231306 M562.0094322502314,592.402134155282 L557.6649241428343,583.3744480452322 M562.0996814303314,513.0857857156498 L557.7527420579975,504.06310240231306 M555.5512190744146,580.7962813695933 L555.6378565455936,501.48636468081696 M557.6649241428343,583.3744480452322 L555.5512190744146,580.7962813695933 M557.7527420579975,504.06310240231306 L555.6378565455936,501.48636468081696 M544.8225490048301,571.0184243148863 L544.9031998703449,491.7139279651314 M555.5512190744146,580.7962813695933 L544.8225490048301,571.0184243148863 M555.6378565455936,501.48636468081696 L544.9031998703449,491.7139279651314 M572.6398003189406,559.3183574200361 L572.7359266925905,480.02034894207264 M544.8225490048301,571.0184243148863 L554.3798427157096,567.3469522717539 M554.3798427157096,567.3469522717539 L563.6578423500014,563.44456550774 M563.6578423500014,563.44456550774 L572.6398003189406,559.3183574200361 M544.9031998703449,491.7139279651314 L554.4658115612228,488.0444915814258 M554.4658115612228,488.0444915814258 L563.7489728116236,484.1442687386427 M563.7489728116236,484.1442687386427 L572.7359266925905,480.02034894207264 M585.4269567893145,568.2278841833484 L585.5302159837743,488.924935038339 M572.6398003189406,559.3183574200361 L585.4269567893145,568.2278841833484 M572.7359266925905,480.02034894207264 L585.5302159837743,488.924935038339 M589.0184634784694,570.1837174588231 L589.1237255696801,490.87968389649825 M585.4269567893145,568.2278841833484 L589.0184634784694,570.1837174588231 M585.5302159837743,488.924935038339 L589.1237255696801,490.87968389649825 M602.5336132153755,575.3506441237162 L602.6464098962929,496.0437460311119 M589.0184634784694,570.1837174588231 L602.5336132153755,575.3506441237162 M589.1237255696801,490.87968389649825 L602.6464098962929,496.0437460311119 M632.8842449245276,582.2600846501082 L633.0139572854875,502.94935663265977 M602.5336132153755,575.3506441237162 L632.8842449245276,582.2600846501082 M602.6464098962929,496.0437460311119 L633.0139572854875,502.94935663265977 M648.0502609659668,573.4698000633298 L648.1884035107673,494.16394465744645 M632.8842449245276,582.2600846501082 L648.0502609659668,573.4698000633298 M633.0139572854875,502.94935663265977 L648.1884035107673,494.16394465744645 M636.0490832499866,555.9316045301532 L636.1805098693001,476.63547445843227 M648.0502609659668,573.4698000633298 L636.0490832499866,555.9316045301532 M648.1884035107673,494.16394465744645 L636.1805098693001,476.63547445843227 M627.0937402280333,548.1267171596255 L627.2201668893879,468.83491661997266 M636.0490832499866,555.9316045301532 L627.0937402280333,548.1267171596255 M636.1805098693001,476.63547445843227 L627.2201668893879,468.83491661997266 M623.70681471941,546.0536236456574 L623.8313522068054,466.7629732533835 M627.0937402280333,548.1267171596255 L623.70681471941,546.0536236456574 M627.2201668893879,468.83491661997266 L623.8313522068054,466.7629732533835 M608.2843153037841,538.6753824129755 L608.4002550995317,459.38882599508634 M623.70681471941,546.0536236456574 L608.2843153037841,538.6753824129755 M623.8313522068054,466.7629732533835 L608.4002550995317,459.38882599508634 M628.4546041846472,522.5871914998136 L628.581742927397,443.30956490046975 M608.2843153037841,538.6753824129755 L615.4009145937575,533.4788090345897 M615.4009145937575,533.4788090345897 L622.1283634040426,528.1128332826522 M622.1283634040426,528.1128332826522 L628.4546041846472,522.5871914998136 M608.4002550995317,459.38882599508634 L615.5208070521896,454.19513655557154 M615.5208070521896,454.19513655557154 L622.2519910683613,448.8321391974506 M622.2519910683613,448.8321391974506 L628.581742927397,443.30956490046975 M645.3665321811193,528.7726809752289 L645.5030945339322,449.4916206162549 M628.4546041846472,522.5871914998136 L645.3665321811193,528.7726809752289 M628.581742927397,443.30956490046975 L645.5030945339322,449.4916206162549 M649.8240384247383,529.99040840065 L649.9630840423142,450.70867211318154 M645.3665321811193,528.7726809752289 L649.8240384247383,529.99040840065 M645.5030945339322,449.4916206162549 L649.9630840423142,450.70867211318154 M665.4244986384081,532.4882934770226 L665.5722322438562,453.2051707515369 M649.8240384247383,529.99040840065 L665.4244986384081,532.4882934770226 M649.9630840423142,450.70867211318154 L665.5722322438562,453.2051707515369 M697.9442387717797,533.6363457279552 L698.110075329296,454.3525858147149 M665.4244986384081,532.4882934770226 L697.9442387717797,533.6363457279552 M665.5722322438562,453.2051707515369 L698.110075329296,454.3525858147149 M707.6467002363343,522.5753734716252 L707.8179106539867,443.29775343341095 M697.9442387717797,533.6363457279552 L707.6467002363343,522.5753734716252 M698.110075329296,454.3525858147149 L707.8179106539867,443.29775343341095 M686.8727706127604,508.0499706215943 L687.0323874804651,428.7804164388204 M707.6467002363343,522.5753734716252 L686.8727706127604,508.0499706215943 M707.8179106539867,443.29775343341095 L687.0323874804651,428.7804164388204 M674.194442223665,502.2304782101061 L674.3469923790137,422.9641564740336 M686.8727706127604,508.0499706215943 L674.194442223665,502.2304782101061 M687.0323874804651,428.7804164388204 L674.3469923790137,422.9641564740336 M669.8691397734515,500.8646012800731 L670.0192806374209,421.59903829910945 M674.194442223665,502.2304782101061 L669.8691397734515,500.8646012800731 M674.3469923790137,422.9641564740336 L670.0192806374209,421.59903829910945 M651.2751458172856,496.60423257582744 L651.41493361574,417.3410364492012 M669.8691397734515,500.8646012800731 L651.2751458172856,496.60423257582744 M670.0192806374209,421.59903829910945 L651.41493361574,417.3410364492012 M661.8307502086793,477.71447493601534 L661.976371636554,398.4617764519495 M651.2751458172856,496.60423257582744 L655.2560708885408,490.3952471847332 M655.2560708885408,490.3952471847332 L658.7766846016168,484.09487006513075 M658.7766846016168,484.09487006513075 L661.8307502086793,477.71447493601534 M651.41493361574,417.3410364492012 L655.3980609617317,411.1355009761427 M655.3980609617317,411.1355009761427 L658.9206203463023,404.8386251692218 M658.9206203463023,404.8386251692218 L661.976371636554,398.4617764519495 M681.2003350368861,480.57620746286415 L681.3567354541983,401.3219182649408 M661.8307502086793,477.71447493601534 L681.2003350368861,480.57620746286415 M661.976371636554,398.4617764519495 L681.3567354541983,401.3219182649408 M686.0847109426873,480.9383206947978 L686.2438288025864,401.6838302228252 M681.2003350368861,480.57620746286415 L686.0847109426873,480.9383206947978 M681.3567354541983,401.3219182649408 L686.2438288025864,401.6838302228252 M702.2351656241935,480.52924808629 L702.4032652634714,401.2749849900312 M686.0847109426873,480.9383206947978 L702.2351656241935,480.52924808629 M686.2438288025864,401.6838302228252 L702.4032652634714,401.2749849900312 M733.7273585417156,475.81963733770795 L733.9129615021343,396.5679921825108 M702.2351656241935,480.52924808629 L733.7273585417156,475.81963733770795 M702.4032652634714,401.2749849900312 L733.9129615021343,396.5679921825108 M737.0264464712561,463.5785199996614 L737.2138520285519,384.333680957144 M733.7273585417156,475.81963733770795 L737.0264464712561,463.5785199996614 M733.9129615021343,396.5679921825108 L737.2138520285519,384.333680957144 M709.5367241386787,453.4795809368392 L709.7088194775927,374.2403587055716 M737.0264464712561,463.5785199996614 L709.5367241386787,453.4795809368392 M737.2138520285519,384.333680957144 L709.7088194775927,374.2403587055716 M694.3862422640132,450.2097719771674 L694.5499067695732,370.97236868360255 M709.5367241386787,453.4795809368392 L694.3862422640132,450.2097719771674 M709.7088194775927,374.2403587055716 L694.5499067695732,370.97236868360255 M689.5485230565967,449.6829427549671 L689.7094968339404,370.44583254290325 M694.3862422640132,450.2097719771674 L689.5485230565967,449.6829427549671 M694.5499067695732,370.97236868360255 L689.7094968339404,370.44583254290325 M669.6119462627692,448.949489183252 L669.761834806889,369.7127870075323 M689.5485230565967,449.6829427549671 L669.6119462627692,448.949489183252 M689.7094968339404,370.44583254290325 L669.761834806889,369.7127870075323 M669.5369196506033,429.11440930592295 L669.6867247622988,349.8887450014305 M669.6119462627692,448.949489183252 L670.0729327370871,442.3385503710553 M670.0729327370871,442.3385503710553 L670.0478637683607,435.72289497445513 M670.0478637683607,435.72289497445513 L669.5369196506033,429.11440930592295 M669.761834806889,369.7127870075323 L670.2230636294457,363.1055263843983 M670.2230636294457,363.1055263843983 L670.1979667830803,356.4935524831746 M670.1979667830803,356.4935524831746 L669.6867247622988,349.8887450014305 M689.4619922756679,428.3813789665369 L689.6228698275168,349.156122697996 M669.5369196506033,429.11440930592295 L689.4619922756679,428.3813789665369 M669.6867247622988,349.8887450014305 L689.6228698275168,349.156122697996 M694.2939160969163,427.8548723619553 L694.4574779322932,348.6299091746162 M689.4619922756679,428.3813789665369 L694.2939160969163,427.8548723619553 M689.6228698275168,349.156122697996 L694.4574779322932,348.6299091746162 M709.4112636568041,424.5874137814996 L709.5832194789239,345.3642695296842 M694.2939160969163,427.8548723619553 L709.4112636568041,424.5874137814996 M694.4574779322932,348.6299091746162 L709.5832194789239,345.3642695296842 M736.7944331954548,414.4995174096295 L736.9815807452051,335.28198995882593 M709.4112636568041,424.5874137814996 L736.7944331954548,414.4995174096295 M709.5832194789239,345.3642695296842 L736.9815807452051,335.28198995882593 M733.3831709992946,402.2794431175952 L733.5683912100803,323.0687217599671 M736.7944331954548,414.4995174096295 L733.3831709992946,402.2794431175952 M736.9815807452051,335.28198995882593 L733.5683912100803,323.0687217599671 M701.8835999395001,397.58016225410165 L702.0513086243418,318.3720588279632 M733.3831709992946,402.2794431175952 L701.8835999395001,397.58016225410165 M733.5683912100803,323.0687217599671 L702.0513086243418,318.3720588279632 M685.7486552612675,397.17204545377723 L685.9073994144426,317.9641694024672 M701.8835999395001,397.58016225410165 L685.7486552612675,397.17204545377723 M702.0513086243418,318.3720588279632 L685.9073994144426,317.9641694024672 M680.8728677582199,397.5333121237332 L681.0289040194414,318.3252347991582 M685.7486552612675,397.17204545377723 L680.8728677582199,397.5333121237332 M685.9073994144426,317.9641694024672 L681.0289040194414,318.3252347991582 M661.5468194477421,400.38861240126806 L661.6921251338067,321.1789443687955 M680.8728677582199,397.5333121237332 L661.5468194477421,400.38861240126806 M681.0289040194414,318.3252347991582 L661.6921251338067,321.1789443687955 M650.8698193458599,381.5497765370893 L651.0091564056936,302.350606100011 M661.5468194477421,400.38861240126806 L658.4498397926193,394.0231861522566 M658.4498397926193,394.0231861522566 L654.8886635921613,387.7398237531487 M654.8886635921613,387.7398237531487 L650.8698193458599,381.5497765370893 M661.6921251338067,321.1789443687955 L658.5934120734021,314.81706451775807 M658.5934120734021,314.81706451775807 L655.0302450943664,308.53720341557135 M655.0302450943664,308.53720341557135 L651.0091564056936,302.350606100011 M669.4016624756268,377.3036482045791 L669.5512834868152,298.10684460865536 M650.8698193458599,381.5497765370893 L669.4016624756268,377.3036482045791 M651.0091564056936,302.350606100011 L669.5512834868152,298.10684460865536 M673.7089992533884,375.9425513021558 L673.8610095774175,296.74650645691656 M669.4016624756268,377.3036482045791 L673.7089992533884,375.9425513021558 M669.5512834868152,298.10684460865536 L673.8610095774175,296.74650645691656 M686.3182051258605,370.144591895424 L686.4772052952458,290.95177947695987 M673.7089992533884,375.9425513021558 L686.3182051258605,370.144591895424 M673.8610095774175,296.74650645691656 L686.4772052952458,290.95177947695987 M706.927106494692,355.68117831690273 L707.0975166958599,276.49643169655513 M686.3182051258605,370.144591895424 L706.927106494692,355.68117831690273 M686.4772052952458,290.95177947695987 L707.0975166958599,276.49643169655513 M697.1553171714406,344.67529762515665 L697.3202764168332,265.4966908289407 M706.927106494692,355.68117831690273 L697.1553171714406,344.67529762515665 M707.0975166958599,276.49643169655513 L697.3202764168332,265.4966908289407 M664.7301919280858,345.81731480417204 L664.8771534369548,266.6380708257743 M697.1553171714406,344.67529762515665 L664.7301919280858,345.81731480417204 M697.3202764168332,265.4966908289407 L664.8771534369548,266.6380708257743 M649.1879618111418,348.3023226000381 L649.3263000863781,269.12169219551635 M664.7301919280858,345.81731480417204 L649.1879618111418,348.3023226000381 M664.8771534369548,266.6380708257743 L649.3263000863781,269.12169219551635 M644.7501473627663,349.5138983092664 L644.8860242713238,270.332591981933 M649.1879618111418,348.3023226000381 L644.7501473627663,349.5138983092664 M649.3263000863781,269.12169219551635 L644.8860242713238,270.332591981933 M627.9201674307119,355.6694155133081 L628.0467118588147,276.4846754540394 M644.7501473627663,349.5138983092664 L627.9201674307119,355.6694155133081 M644.8860242713238,270.332591981933 L628.0467118588147,276.4846754540394 M607.7035091383682,339.6636179982581 L607.8188030544893,260.48780768143575 M627.9201674307119,355.6694155133081 L621.5744477886028,350.1704470884646 M621.5744477886028,350.1704470884646 L614.8315053321776,344.8320018364156 M614.8315053321776,344.8320018364156 L607.7035091383682,339.6636179982581 M628.0467118588147,276.4846754540394 L621.6974594769006,270.9887744904064 M621.6974594769006,270.9887744904064 L614.9507645849203,265.6533076067463 M614.9507645849203,265.6533076067463 L607.8188030544893,260.48780768143575 M623.0369503986637,332.3279828676849 L623.1607429699884,253.1562664859373 M607.7035091383682,339.6636179982581 L623.0369503986637,332.3279828676849 M607.8188030544893,260.48780768143575 L623.1607429699884,253.1562664859373 M626.4006022728568,330.26740556503256 L626.526258136855,251.09683931912156 M623.0369503986637,332.3279828676849 L626.4006022728568,330.26740556503256 M623.1607429699884,253.1562664859373 L626.526258136855,251.09683931912156 M635.277236722199,322.5117833189491 L635.4078050167525,243.34554655969745 M626.4006022728568,330.26740556503256 L635.277236722199,322.5117833189491 M626.526258136855,251.09683931912156 L635.4078050167525,243.34554655969745 M647.1179452827855,305.09663825199897 L647.2550510536969,225.94012671365718 M635.277236722199,322.5117833189491 L647.1179452827855,305.09663825199897 M635.4078050167525,243.34554655969745 L647.2550510536969,225.94012671365718 M631.9519287959326,296.3744508964777 L632.0806043820121,217.22281190712758 M647.1179452827855,305.09663825199897 L631.9519287959326,296.3744508964777 M647.2550510536969,225.94012671365718 L632.0806043820121,217.22281190712758 M601.7617659443147,303.2300043649683 L601.873704298818,224.07453550028407 M631.9519287959326,296.3744508964777 L601.7617659443147,303.2300043649683 M632.0806043820121,217.22281190712758 L601.873704298818,224.07453550028407 M588.3253248037861,308.3583649544293 L588.4298160960395,229.2000315949269 M601.7617659443147,303.2300043649683 L588.3253248037861,308.3583649544293 M601.873704298818,224.07453550028407 L588.4298160960395,229.2000315949269 M584.757091781189,310.29998646198874 L584.8596060580485,231.14056869824438 M588.3253248037861,308.3583649544293 L584.757091781189,310.29998646198874 M588.4298160960395,229.2000315949269 L584.8596060580485,231.14056869824438 M572.0589936367692,319.1474613138474 L572.1544741296427,239.98310294017608 M584.757091781189,310.29998646198874 L572.0589936367692,319.1474613138474 M584.8596060580485,231.14056869824438 L572.1544741296427,239.98310294017608 M544.288111157533,307.5297880220268 L544.3681677059678,228.37191744431652 M572.0589936367692,319.1474613138474 L563.0884323565817,315.04944279725026 M563.0884323565817,315.04944279725026 L553.8259261743701,311.1745865842766 M553.8259261743701,311.1745865842766 L544.288111157533,307.5297880220268 M572.1544741296427,239.98310294017608 L563.1789296108861,235.8873726887567 M563.1789296108861,235.8873726887567 L553.9112790418019,232.0146803716768 M553.9112790418019,232.0146803716768 L544.3681677059678,228.37191744431652 M554.9348328016906,297.82661683015334 L555.0207848253776,218.67416652281946 M544.288111157533,307.5297880220268 L554.9348328016906,297.82661683015334 M544.3681677059678,228.37191744431652 L555.0207848253776,218.67416652281946 M557.0288459640337,295.26902643614795 L557.115956533374,216.11800506406036 M554.9348328016906,297.82661683015334 L557.0288459640337,295.26902643614795 M555.0207848253776,218.67416652281946 L557.115956533374,216.11800506406036 M561.3151235290379,286.31629435241496 L561.4046006080839,207.17027570826048 M557.0288459640337,295.26902643614795 L561.3151235290379,286.31629435241496 M557.115956533374,216.11800506406036 L561.4046006080839,207.17027570826048 M563.2512688202626,267.65352511427477 L563.3417960497436,188.51793912060256 M561.3151235290379,286.31629435241496 L563.2512688202626,267.65352511427477 M561.4046006080839,207.17027570826048 L563.3417960497436,188.51793912060256 M544.1755116526958,262.05917927347014 L544.2554545662106,182.92672162565884 M563.2512688202626,267.65352511427477 L544.1755116526958,262.05917927347014 M563.3417960497436,188.51793912060256 L544.2554545662106,182.92672162565884 M519.1528093002055,273.94801844762975 L519.2188885980552,194.80891317051095 M544.1755116526958,262.05917927347014 L519.1528093002055,273.94801844762975 M544.2554545662106,182.92672162565884 L519.2188885980552,194.80891317051095 M509.1262832231181,281.21483384425846 L509.1868082379425,202.07166642164907 M519.1528093002055,273.94801844762975 L509.1262832231181,281.21483384425846 M519.2188885980552,194.80891317051095 L509.1868082379425,202.07166642164907 M506.77361484387126,283.6959171563818 L506.8328370590355,204.55136299820438 M509.1262832231181,281.21483384425846 L506.77361484387126,283.6959171563818 M509.1868082379425,202.07166642164907 L506.8328370590355,204.55136299820438 M499.4377650938974,294.3681347688432 L499.4929267458861,215.21761675256164 M506.77361484387126,283.6959171563818 L499.4377650938974,294.3681347688432 M506.8328370590355,204.55136299820438 L499.4929267458861,215.21761675256164 M466.8244766013408,288.2641415840488 L466.8615433233315,209.11703438928322 M499.4377650938974,294.3681347688432 L488.7188336765854,292.06822224178177 M488.7188336765854,292.06822224178177 L477.84125460303795,290.03234971232075 M477.84125460303795,290.03234971232075 L466.8244766013408,288.2641415840488 M499.4929267458861,215.21761675256164 L488.76804756512763,212.9189893145554 M488.76804756512763,212.9189893145554 L477.88443327152,210.88425440912573 M477.88443327152,210.88425440912573 L466.8615433233315,209.11703438928322 M471.75387089750444,277.1426361527008 L471.7936656667781,198.0017449847734 M466.8244766013408,288.2641415840488 L471.75387089750444,277.1426361527008 M466.8615433233315,209.11703438928322 L471.7936656667781,198.0017449847734 M472.37605779345955,274.33801779041016 L472.41619604412205,195.19869448298397 M471.75387089750444,277.1426361527008 L472.37605779345955,274.33801779041016 M471.7936656667781,198.0017449847734 L472.41619604412205,195.19869448298397 M471.6606375310826,265.0622629621654 L471.70037383729994,185.9281259359153 M472.37605779345955,274.33801779041016 L471.6606375310826,265.0622629621654 M472.41619604412205,195.19869448298397 L471.70037383729994,185.9281259359153 M463.5160294855175,246.97137161408813 L463.551240584551,167.8473534675409 M471.6606375310826,265.0622629621654 L463.5160294855175,246.97137161408813 M471.70037383729994,185.9281259359153 L463.551240584551,167.8473534675409 M442.3879671308686,245.04471102375732 L442.41146492253415,165.9217708277201 M463.5160294855175,246.97137161408813 L442.3879671308686,245.04471102375732 M463.551240584551,167.8473534675409 L442.41146492253415,165.9217708277201 M424.9587763362039,260.80251275263686 L424.97261531610854,181.67075789708605 M442.3879671308686,245.04471102375732 L424.9587763362039,260.80251275263686 M442.41146492253415,165.9217708277201 L424.97261531610854,181.67075789708605 M419.3138572197438,269.49749552476953 L419.32456755216367,190.36087849382824 M424.9587763362039,260.80251275263686 L419.3138572197438,269.49749552476953 M424.97261531610854,181.67075789708605 L419.32456755216367,190.36087849382824 M418.4045308125256,272.27572466370884 L418.41473728488296,193.13755431435123 M419.3138572197438,269.49749552476953 L418.4045308125256,272.27572466370884 M419.32456755216367,190.36087849382824 L418.41473728488296,193.13755431435123 M417.14025116638976,283.73085041410775 L417.14975804824394,204.5862767315997 M418.4045308125256,272.27572466370884 L417.14025116638976,283.73085041410775 M418.41473728488296,193.13755431435123 L417.14975804824394,204.5862767315997 M382.85974883361035,283.73085041410775 L382.8502419517561,204.5862767315997 M417.14025116638976,283.73085041410775 L405.7168185022483,283.4514980973975 M405.7168185022483,283.4514980973975 L394.28318149775174,283.4514980973976 M394.28318149775174,283.4514980973976 L382.85974883361035,283.73085041410775 M417.14975804824394,204.5862767315997 L405.71998933702423,204.3070805464949 M405.71998933702423,204.3070805464949 L394.2800106629758,204.3070805464949 M394.2800106629758,204.3070805464949 L382.8502419517561,204.5862767315997 M381.59546918747446,272.27572466370884 L381.58526271511715,193.13755431435123 M382.85974883361035,283.73085041410775 L381.59546918747446,272.27572466370884 M382.8502419517561,204.5862767315997 L381.58526271511715,193.13755431435123 M380.68614278025626,269.49749552476953 L380.67543244783633,190.36087849382824 M381.59546918747446,272.27572466370884 L380.68614278025626,269.49749552476953 M381.58526271511715,193.13755431435123 L380.67543244783633,190.36087849382824 M375.04122366379613,260.80251275263686 L375.0273846838915,181.67075789708605 M380.68614278025626,269.49749552476953 L375.04122366379613,260.80251275263686 M380.67543244783633,190.36087849382824 L375.0273846838915,181.67075789708605 M357.61203286913144,245.04471102375732 L357.58853507746596,165.9217708277201 M375.04122366379613,260.80251275263686 L357.61203286913144,245.04471102375732 M375.0273846838915,181.67075789708605 L357.58853507746596,165.9217708277201 M336.48397051448256,246.97137161408813 L336.44875941544905,167.8473534675411 M357.61203286913144,245.04471102375732 L336.48397051448256,246.97137161408813 M357.58853507746596,165.9217708277201 L336.44875941544905,167.8473534675411 M328.3393624689174,265.0622629621654 L328.29962616270006,185.9281259359153 M336.48397051448256,246.97137161408813 L328.3393624689174,265.0622629621654 M336.44875941544905,167.8473534675411 L328.29962616270006,185.9281259359153 M327.62394220654045,274.33801779041005 L327.58380395587807,195.1986944829838 M328.3393624689174,265.0622629621654 L327.62394220654045,274.33801779041005 M328.29962616270006,185.9281259359153 L327.58380395587807,195.1986944829838 M328.2461291024957,277.1426361527008 L328.20633433322195,198.00174498477332 M327.62394220654045,274.33801779041005 L328.2461291024957,277.1426361527008 M327.58380395587807,195.1986944829838 L328.20633433322195,198.00174498477332 M333.17552339865927,288.2641415840488 L333.13845667666857,209.11703438928322 M328.2461291024957,277.1426361527008 L333.17552339865927,288.2641415840488 M328.20633433322195,198.00174498477332 L333.13845667666857,209.11703438928322 M300.5622349061027,294.3681347688432 L300.5070732541139,215.21761675256164 M333.17552339865927,288.2641415840488 L322.15874539696216,290.03234971232075 M322.15874539696216,290.03234971232075 L311.28116632341465,292.06822224178177 M311.28116632341465,292.06822224178177 L300.5622349061027,294.3681347688432 M333.13845667666857,209.11703438928322 L322.11556672848013,210.88425440912573 M322.11556672848013,210.88425440912573 L311.2319524348725,212.9189893145554 M311.2319524348725,212.9189893145554 L300.5070732541139,215.21761675256164 M293.2263851561288,283.6959171563818 L293.16716294096454,204.55136299820438 M300.5622349061027,294.3681347688432 L293.2263851561288,283.6959171563818 M300.5070732541139,215.21761675256164 L293.16716294096454,204.55136299820438 M290.873716776882,281.21483384425846 L290.8131917620576,202.0716664216489 M293.2263851561288,283.6959171563818 L290.873716776882,281.21483384425846 M293.16716294096454,204.55136299820438 L290.8131917620576,202.0716664216489 M280.84719069979457,273.94801844762975 L280.7811114019449,194.80891317051095 M290.873716776882,281.21483384425846 L280.84719069979457,273.94801844762975 M290.8131917620576,202.0716664216489 L280.7811114019449,194.80891317051095 M255.82448834730434,262.05917927347014 L255.74454543378937,182.92672162565884 M280.84719069979457,273.94801844762975 L255.82448834730434,262.05917927347014 M280.7811114019449,194.80891317051095 L255.74454543378937,182.92672162565884 M236.7487311797375,267.65352511427477 L236.6582039502564,188.51793912060248 M255.82448834730434,262.05917927347014 L236.7487311797375,267.65352511427477 M255.74454543378937,182.92672162565884 L236.6582039502564,188.51793912060248 M238.6848764709622,286.31629435241496 L238.59539939191617,207.17027570826048 M236.7487311797375,267.65352511427477 L238.6848764709622,286.31629435241496 M236.6582039502564,188.51793912060248 L238.59539939191617,207.17027570826048 M242.9711540359664,295.26902643614795 L242.88404346662622,216.11800506406027 M238.6848764709622,286.31629435241496 L242.9711540359664,295.26902643614795 M238.59539939191617,207.17027570826048 L242.88404346662622,216.11800506406027 M245.06516719830944,297.82661683015334 L244.9792151746224,218.67416652281946 M242.9711540359664,295.26902643614795 L245.06516719830944,297.82661683015334 M242.88404346662622,216.11800506406027 L244.9792151746224,218.67416652281946 M255.71188884246706,307.5297880220268 L255.63183229403225,228.37191744431652 M245.06516719830944,297.82661683015334 L255.71188884246706,307.5297880220268 M244.9792151746224,218.67416652281946 L255.63183229403225,228.37191744431652 M227.94100636323085,319.1474613138474 L227.84552587035728,239.98310294017608 M255.71188884246706,307.5297880220268 L246.17407382562985,311.1745865842766 M246.17407382562985,311.1745865842766 L236.91156764341818,315.04944279725026 M236.91156764341818,315.04944279725026 L227.94100636323085,319.1474613138474 M255.63183229403225,228.37191744431652 L246.08872095819822,232.01468037167672 M246.08872095819822,232.01468037167672 L236.82107038911386,235.8873726887567 M236.82107038911386,235.8873726887567 L227.84552587035728,239.98310294017608 M215.24290821881087,310.29998646198874 L215.14039394195157,231.1405686982443 M227.94100636323085,319.1474613138474 L215.24290821881087,310.29998646198874 M227.84552587035728,239.98310294017608 L215.14039394195157,231.1405686982443 M211.67467519621383,308.3583649544292 L211.57018390396044,229.2000315949269 M215.24290821881087,310.29998646198874 L211.67467519621383,308.3583649544292 M215.14039394195157,231.1405686982443 L211.57018390396044,229.2000315949269 M198.2382340556855,303.2300043649683 L198.12629570118204,224.07453550028407 M211.67467519621383,308.3583649544292 L198.2382340556855,303.2300043649683 M211.57018390396044,229.2000315949269 L198.12629570118204,224.07453550028407 M168.04807120406736,296.37445089647764 L167.9193956179878,217.22281190712758 M198.2382340556855,303.2300043649683 L168.04807120406736,296.37445089647764 M198.12629570118204,224.07453550028407 L167.9193956179878,217.22281190712758 M152.88205471721457,305.09663825199885 L152.7449489463032,225.94012671365718 M168.04807120406736,296.37445089647764 L152.88205471721457,305.09663825199885 M167.9193956179878,217.22281190712758 L152.7449489463032,225.94012671365718 M164.72276327780125,322.5117833189491 L164.59219498324757,243.34554655969745 M152.88205471721457,305.09663825199885 L164.72276327780125,322.5117833189491 M152.7449489463032,225.94012671365718 L164.59219498324757,243.34554655969745 M173.59939772714327,330.26740556503256 L173.47374186314502,251.09683931912156 M164.72276327780125,322.5117833189491 L173.59939772714327,330.26740556503256 M164.59219498324757,243.34554655969745 L173.47374186314502,251.09683931912156 M176.9630496013362,332.3279828676849 L176.83925703001168,253.1562664859373 M173.59939772714327,330.26740556503256 L176.9630496013362,332.3279828676849 M173.47374186314502,251.09683931912156 L176.83925703001168,253.1562664859373 M192.29649086163192,339.6636179982581 L192.18119694551066,260.48780768143575 M176.9630496013362,332.3279828676849 L192.29649086163192,339.6636179982581 M176.83925703001168,253.1562664859373 L192.18119694551066,260.48780768143575 M172.07983256928804,355.6694155133081 L171.95328814118545,276.48467545403935 M192.29649086163192,339.6636179982581 L185.16849466782242,344.83200183641554 M185.16849466782242,344.83200183641554 L178.42555221139713,350.1704470884646 M178.42555221139713,350.1704470884646 L172.07983256928804,355.6694155133081 M192.18119694551066,260.48780768143575 L185.0492354150798,265.65330760674624 M185.0492354150798,265.65330760674624 L178.30254052309934,270.9887744904064 M178.30254052309934,270.9887744904064 L171.95328814118545,276.48467545403935 M155.24985263723386,349.5138983092664 L155.11397572867625,270.33259198193286 M172.07983256928804,355.6694155133081 L155.24985263723386,349.5138983092664 M171.95328814118545,276.48467545403935 L155.11397572867625,270.33259198193286 M150.81203818885822,348.30232260003805 L150.67369991362207,269.12169219551635 M155.24985263723386,349.5138983092664 L150.81203818885822,348.30232260003805 M155.11397572867625,270.33259198193286 L150.67369991362207,269.12169219551635 M135.2698080719142,345.817314804172 L135.1228465630452,266.6380708257743 M150.81203818885822,348.30232260003805 L135.2698080719142,345.817314804172 M150.67369991362207,269.12169219551635 L135.1228465630452,266.6380708257743 M102.84468282855937,344.6752976251566 L102.67972358316695,265.4966908289406 M135.2698080719142,345.817314804172 L102.84468282855937,344.6752976251566 M135.1228465630452,266.6380708257743 L102.67972358316695,265.4966908289406 M93.07289350530812,355.6811783169026 L92.90248330413999,276.49643169655513 M102.84468282855937,344.6752976251566 L93.07289350530812,355.6811783169026 M102.67972358316695,265.4966908289406 L92.90248330413999,276.49643169655513 M113.68179487413954,370.144591895424 L113.52279470475423,290.95177947695976 M93.07289350530812,355.6811783169026 L113.68179487413954,370.144591895424 M92.90248330413999,276.49643169655513 L113.52279470475423,290.95177947695976 M126.29100074661181,375.9425513021558 L126.13899042258265,296.74650645691656 M113.68179487413954,370.144591895424 L126.29100074661181,375.9425513021558 M113.52279470475423,290.95177947695976 L126.13899042258265,296.74650645691656 M130.59833752437316,377.303648204579 L130.4487165131847,298.1068446086553 M126.29100074661181,375.9425513021558 L130.59833752437316,377.303648204579 M126.13899042258265,296.74650645691656 L130.4487165131847,298.1068446086553 M149.13018065414025,381.54977653708926 L148.9908435943064,302.350606100011 M130.59833752437316,377.303648204579 L149.13018065414025,381.54977653708926 M130.4487165131847,298.1068446086553 L148.9908435943064,302.350606100011 M138.453180552258,400.38861240126795 L138.3078748661934,321.1789443687955 M149.13018065414025,381.54977653708926 L145.1113364078389,387.73982375314864 M145.1113364078389,387.73982375314864 L141.5501602073807,394.0231861522565 M141.5501602073807,394.0231861522565 L138.453180552258,400.38861240126795 M148.9908435943064,302.350606100011 L144.96975490563366,308.53720341557135 M144.96975490563366,308.53720341557135 L141.40658792659798,314.817064517758 M141.40658792659798,314.817064517758 L138.3078748661934,321.1789443687955 M119.12713224178032,397.5333121237332 L118.9710959805588,318.32523479915807 M138.453180552258,400.38861240126795 L119.12713224178032,397.5333121237332 M138.3078748661934,321.1789443687955 L118.9710959805588,318.32523479915807 M114.25134473873254,397.1720454537771 L114.09260058555742,317.96416940246706 M119.12713224178032,397.5333121237332 L114.25134473873254,397.1720454537771 M118.9710959805588,318.32523479915807 L114.09260058555742,317.96416940246706 M98.11640006049998,397.5801622541016 L97.94869137565831,318.3720588279632 M114.25134473873254,397.1720454537771 L98.11640006049998,397.5801622541016 M114.09260058555742,317.96416940246706 L97.94869137565831,318.3720588279632 M66.61682900070531,402.2794431175952 L66.43160878991989,323.0687217599671 M98.11640006049998,397.5801622541016 L66.61682900070531,402.2794431175952 M97.94869137565831,318.3720588279632 L66.43160878991989,323.0687217599671 M63.2055668045453,414.49951740962945 L63.01841925479505,335.28198995882593 M66.61682900070531,402.2794431175952 L63.2055668045453,414.49951740962945 M66.43160878991989,323.0687217599671 L63.01841925479505,335.28198995882593 M90.58873634319593,424.58741378149955 L90.41678052107625,345.36426952968407 M63.2055668045453,414.49951740962945 L90.58873634319593,424.58741378149955 M63.01841925479505,335.28198995882593 L90.41678052107625,345.36426952968407 M105.70608390308377,427.85487236195524 L105.54252206770695,348.6299091746162 M90.58873634319593,424.58741378149955 L105.70608390308377,427.85487236195524 M90.41678052107625,345.36426952968407 L105.54252206770695,348.6299091746162 M110.53800772433215,428.3813789665369 L110.37713017248336,349.156122697996 M105.70608390308377,427.85487236195524 L110.53800772433215,428.3813789665369 M105.54252206770695,348.6299091746162 L110.37713017248336,349.156122697996 M130.46308034939676,429.11440930592295 L130.31327523770142,349.8887450014305 M110.53800772433215,428.3813789665369 L130.46308034939676,429.11440930592295 M110.37713017248336,349.156122697996 L130.31327523770142,349.8887450014305 M130.38805373723096,448.949489183252 L130.238165193111,369.7127870075323 M130.46308034939676,429.11440930592295 L129.95213623163943,435.72289497445513 M129.95213623163943,435.72289497445513 L129.92706726291317,442.3385503710553 M129.92706726291317,442.3385503710553 L130.38805373723096,448.949489183252 M130.31327523770142,349.8887450014305 L129.80203321691954,356.4935524831746 M129.80203321691954,356.4935524831746 L129.77693637055427,363.1055263843982 M129.77693637055427,363.1055263843982 L130.238165193111,369.7127870075323 M110.4514769434034,449.6829427549671 L110.2905031660598,370.44583254290325 M130.38805373723096,448.949489183252 L110.4514769434034,449.6829427549671 M130.238165193111,369.7127870075323 L110.2905031660598,370.44583254290325 M105.61375773598678,450.20977197716735 L105.45009323042683,370.97236868360255 M110.4514769434034,449.6829427549671 L105.61375773598678,450.20977197716735 M110.2905031660598,370.44583254290325 L105.45009323042683,370.97236868360255 M90.46327586132145,453.4795809368392 L90.29118052240744,374.24035870557157 M105.61375773598678,450.20977197716735 L90.46327586132145,453.4795809368392 M105.45009323042683,370.97236868360255 L90.29118052240744,374.24035870557157 M62.97355352874399,463.5785199996614 L62.786147971448145,384.3336809571439 M90.46327586132145,453.4795809368392 L62.97355352874399,463.5785199996614 M90.29118052240744,374.24035870557157 L62.786147971448145,384.3336809571439 M66.27264145828434,475.81963733770795 L66.0870384978657,396.56799218251075 M62.97355352874399,463.5785199996614 L66.27264145828434,475.81963733770795 M62.786147971448145,384.3336809571439 L66.0870384978657,396.56799218251075 M97.76483437580663,480.52924808629 L97.59673473652879,401.2749849900311 M66.27264145828434,475.81963733770795 L97.76483437580663,480.52924808629 M66.0870384978657,396.56799218251075 L97.59673473652879,401.2749849900311 M113.91528905731292,480.9383206947978 L113.75617119741372,401.6838302228251 M97.76483437580663,480.52924808629 L113.91528905731292,480.9383206947978 M97.59673473652879,401.2749849900311 L113.75617119741372,401.6838302228251 M118.79966496311403,480.57620746286403 L118.64326454580169,401.3219182649407 M113.91528905731292,480.9383206947978 L118.79966496311403,480.57620746286403 M113.75617119741372,401.6838302228251 L118.64326454580169,401.3219182649407 M138.16924979132062,477.71447493601534 L138.02362836344605,398.4617764519495 M118.79966496311403,480.57620746286403 L138.16924979132062,477.71447493601534 M118.64326454580169,401.3219182649407 L138.02362836344605,398.4617764519495 M148.7248541827144,496.60423257582744 L148.5850663842601,417.3410364492011 M138.16924979132062,477.71447493601534 L141.2233153983832,484.09487006513075 M141.2233153983832,484.09487006513075 L144.7439291114592,490.39524718473314 M144.7439291114592,490.39524718473314 L148.7248541827144,496.60423257582744 M138.02362836344605,398.4617764519495 L141.07937965369786,404.8386251692218 M141.07937965369786,404.8386251692218 L144.6019390382684,411.1355009761427 M144.6019390382684,411.1355009761427 L148.5850663842601,417.3410364492011 M130.13086022654852,500.864601280073 L129.98071936257907,421.59903829910934 M148.7248541827144,496.60423257582744 L130.13086022654852,500.864601280073 M148.5850663842601,417.3410364492011 L129.98071936257907,421.59903829910934 M125.80555777633504,502.230478210106 L125.65300762098622,422.96415647403353 M130.13086022654852,500.864601280073 L125.80555777633504,502.230478210106 M129.98071936257907,421.59903829910934 L125.65300762098622,422.96415647403353 M113.1272293872396,508.0499706215943 L112.96761251953484,428.7804164388204 M125.80555777633504,502.230478210106 L113.1272293872396,508.0499706215943 M125.65300762098622,422.96415647403353 L112.96761251953484,428.7804164388204 M92.35329976366592,522.575373471625 L92.18208934601336,443.29775343341095 M113.1272293872396,508.0499706215943 L92.35329976366592,522.575373471625 M112.96761251953484,428.7804164388204 L92.18208934601336,443.29775343341095 M102.05576122822038,533.6363457279552 L101.88992467070392,454.3525858147149 M92.35329976366592,522.575373471625 L102.05576122822038,533.6363457279552 M92.18208934601336,443.29775343341095 L101.88992467070392,454.3525858147149 M134.57550136159193,532.4882934770226 L134.4277677561438,453.2051707515369 M102.05576122822038,533.6363457279552 L134.57550136159193,532.4882934770226 M101.88992467070392,454.3525858147149 L134.4277677561438,453.2051707515369 M150.17596157526194,529.9904084006499 L150.03691595768598,450.70867211318154 M134.57550136159193,532.4882934770226 L150.17596157526194,529.9904084006499 M134.4277677561438,453.2051707515369 L150.03691595768598,450.70867211318154 M154.6334678188808,528.7726809752289 L154.49690546606777,449.4916206162549 M150.17596157526194,529.9904084006499 L154.6334678188808,528.7726809752289 M150.03691595768598,450.70867211318154 L154.49690546606777,449.4916206162549 M171.5453958153528,522.5871914998136 L171.41825707260313,443.3095649004696 M154.6334678188808,528.7726809752289 L171.5453958153528,522.5871914998136 M154.49690546606777,449.4916206162549 L171.41825707260313,443.3095649004696 M171.5453958153528,522.5871914998136 L191.71568469621607,538.6753824129755 M171.41825707260313,443.3095649004696 L191.59974490046844,459.3888259950862" stroke="black"  stroke-width="4"  fill="red"/></svg>